<svg fill="none" height="20" viewBox="0 0 20 20" width="20" xmlns="http://www.w3.org/2000/svg">
	<path fill-rule="evenodd" clip-rule="evenodd" d="M10.0164 0.902344C4.96382 0.902344 0.866699 5.06856 0.866699 10.2082C0.866699 14.3199 3.48837 17.8082 7.12382 19.0387C7.58109 19.1249 7.74897 18.8369 7.74897 18.5911C7.74897 18.3692 7.74049 17.6361 7.73655 16.8585C5.19109 17.4214 4.65397 15.7605 4.65397 15.7605C4.23776 14.6848 3.63806 14.3988 3.63806 14.3988C2.80791 13.8212 3.70064 13.8331 3.70064 13.8331C4.61943 13.8986 5.10321 14.7921 5.10321 14.7921C5.91927 16.2148 7.24367 15.8035 7.76579 15.5657C7.84791 14.9644 8.08503 14.5535 8.3467 14.3213C6.31443 14.086 4.17806 13.288 4.17806 9.7222C4.17806 8.70619 4.53549 7.87603 5.12079 7.22432C5.02579 6.98978 4.71261 6.04342 5.20943 4.76158C5.20943 4.76158 5.97776 4.51147 7.72624 5.71549C8.45609 5.5093 9.23882 5.40589 10.0164 5.40235C10.794 5.40589 11.5773 5.5093 12.3085 5.71549C14.0549 4.51147 14.8222 4.76158 14.8222 4.76158C15.3202 6.04342 15.0069 6.98978 14.9118 7.22432C15.4985 7.87603 15.8535 8.70619 15.8535 9.7222C15.8535 13.2965 13.7131 14.0835 11.6756 14.3139C12.0038 14.6027 12.2962 15.169 12.2962 16.0372C12.2962 17.2823 12.2856 18.2844 12.2856 18.5911C12.2856 18.8387 12.4503 19.1289 12.9141 19.0375C16.5476 17.8056 19.1659 14.3185 19.1659 10.2082C19.1659 5.06856 15.0694 0.902344 10.0164 0.902344Z" fill="white" />
	<path fill-rule="evenodd" clip-rule="evenodd" d="M4.33215 14.2637C4.312 14.31 4.24049 14.3238 4.17534 14.292C4.10897 14.2617 4.0717 14.1986 4.09321 14.1522C4.11291 14.1046 4.18458 14.0915 4.25079 14.1231C4.31731 14.1536 4.35518 14.2173 4.33215 14.2637Z" fill="white" />
	<path fill-rule="evenodd" clip-rule="evenodd" d="M4.70276 14.6841C4.65912 14.7252 4.57382 14.7061 4.51594 14.6411C4.45609 14.5762 4.44488 14.4894 4.48912 14.4477C4.53412 14.4065 4.61685 14.4258 4.67685 14.4907C4.7367 14.5563 4.74837 14.6424 4.70276 14.6841Z" fill="white" />
	<path fill-rule="evenodd" clip-rule="evenodd" d="M5.06352 15.22C5.00746 15.2596 4.91579 15.2225 4.85912 15.1397C4.80306 15.057 4.80306 14.9577 4.86034 14.918C4.91715 14.8782 5.00746 14.914 5.06488 14.9961C5.12079 15.0801 5.12079 15.1795 5.06352 15.22Z" fill="white" />
	<path fill-rule="evenodd" clip-rule="evenodd" d="M5.55776 15.7378C5.50761 15.7941 5.40079 15.779 5.32261 15.7022C5.24261 15.6272 5.22034 15.5207 5.27064 15.4644C5.3214 15.408 5.42882 15.4239 5.50761 15.5C5.587 15.5749 5.61124 15.6822 5.55776 15.7378Z" fill="white" />
	<path fill-rule="evenodd" clip-rule="evenodd" d="M6.23958 16.0385C6.21746 16.1114 6.11458 16.1445 6.01094 16.1135C5.90746 16.0816 5.83973 15.9963 5.86064 15.9226C5.88215 15.8492 5.98549 15.8147 6.08988 15.8479C6.19321 15.8796 6.26109 15.9644 6.23958 16.0385Z" fill="white" />
	<path fill-rule="evenodd" clip-rule="evenodd" d="M6.98837 16.0943C6.99094 16.171 6.90306 16.2347 6.79428 16.2359C6.68488 16.2385 6.5964 16.1764 6.59518 16.1009C6.59518 16.0234 6.68109 15.9603 6.79049 15.9585C6.89928 15.9563 6.98837 16.018 6.98837 16.0943Z" fill="white" />
	<path fill-rule="evenodd" clip-rule="evenodd" d="M7.68518 15.9736C7.69821 16.0485 7.62261 16.1254 7.51458 16.1457C7.40837 16.1656 7.31003 16.1194 7.29655 16.0451C7.28337 15.9684 7.36034 15.8915 7.4664 15.8716C7.57458 15.8525 7.6714 15.8975 7.68518 15.9736Z" fill="white" />
</svg>