<svg fill="none" height="20" viewBox="0 0 20 20" width="20" xmlns="http://www.w3.org/2000/svg">
	<g clip-path="url(#clip0_4542_2777)">
		<path d="M6.90967 16.7707C13.1974 16.7707 16.6375 11.5601 16.6375 7.04282C16.6375 6.89633 16.6343 6.74659 16.6278 6.60011C17.297 6.11615 17.8745 5.5167 18.3332 4.82993C17.7099 5.10722 17.0482 5.28832 16.3706 5.36704C17.0841 4.93938 17.6183 4.26755 17.8742 3.47608C17.203 3.87386 16.469 4.15445 15.7036 4.30584C15.1879 3.75789 14.5061 3.39508 13.7635 3.2735C13.0209 3.15193 12.259 3.27836 11.5955 3.63326C10.932 3.98815 10.4039 4.55174 10.0928 5.23688C9.78171 5.92202 9.705 6.69056 9.87451 7.42368C8.51546 7.35548 7.1859 7.00243 5.97205 6.38743C4.75819 5.77242 3.68712 4.90919 2.82829 3.85369C2.39178 4.60628 2.25821 5.49683 2.45472 6.34437C2.65123 7.1919 3.16308 7.93281 3.88623 8.41651C3.34333 8.39928 2.81232 8.25311 2.33708 7.99008V8.0324C2.33659 8.82218 2.60963 9.58777 3.10977 10.199C3.60992 10.8102 4.30631 11.2294 5.08057 11.3853C4.57765 11.5229 4.04982 11.5429 3.53792 11.4439C3.7564 12.1231 4.18149 12.7171 4.75384 13.1431C5.3262 13.5691 6.01728 13.8058 6.73063 13.8202C5.51958 14.7715 4.02357 15.2874 2.48356 15.285C2.21045 15.2846 1.93761 15.2678 1.6665 15.2349C3.23099 16.2386 5.0509 16.7717 6.90967 16.7707Z" fill="white" />
	</g>
	<defs>
		<clipPath id="clip0_4542_2777">
			<rect fill="white" height="16.6667" transform="translate(1.6665 1.66699)" width="16.6667" />
		</clipPath>
	</defs>
</svg>